<svg width="1280" height="640" viewBox="0 0 1280 640" fill="none" xmlns="http://www.w3.org/2000/svg">
  <defs>
    <linearGradient id="bg" x1="0" y1="0" x2="1280" y2="640" gradientUnits="userSpaceOnUse">
      <stop stop-color="#08131E"/>
      <stop offset="1" stop-color="#12344A"/>
    </linearGradient>
    <linearGradient id="accent" x1="233" y1="102" x2="1047" y2="538" gradientUnits="userSpaceOnUse">
      <stop stop-color="#79E2C0"/>
      <stop offset="0.55" stop-color="#71B9F4"/>
      <stop offset="1" stop-color="#F4D06F"/>
    </linearGradient>
    <filter id="blur" x="0" y="0" width="1280" height="640" filterUnits="userSpaceOnUse" color-interpolation-filters="sRGB">
      <feGaussianBlur stdDeviation="40"/>
    </filter>
  </defs>

  <rect width="1280" height="640" rx="28" fill="url(#bg)"/>

  <g opacity="0.22" filter="url(#blur)">
    <circle cx="270" cy="160" r="140" fill="#79E2C0"/>
    <circle cx="1010" cy="140" r="120" fill="#71B9F4"/>
    <circle cx="1020" cy="500" r="150" fill="#F4D06F"/>
  </g>

  <g opacity="0.16">
    <path d="M130 176H520" stroke="#D9F7EF" stroke-width="2"/>
    <path d="M130 224H690" stroke="#D9F7EF" stroke-width="2"/>
    <path d="M130 272H480" stroke="#D9F7EF" stroke-width="2"/>
    <path d="M130 320H760" stroke="#D9F7EF" stroke-width="2"/>
    <path d="M130 368H560" stroke="#D9F7EF" stroke-width="2"/>
    <path d="M130 416H640" stroke="#D9F7EF" stroke-width="2"/>
  </g>

  <g opacity="0.75">
    <rect x="848" y="110" width="290" height="420" rx="24" fill="#0C2230" stroke="#2D5D73" stroke-width="2"/>
    <rect x="880" y="146" width="228" height="14" rx="7" fill="#D7F2EA"/>
    <rect x="880" y="182" width="176" height="10" rx="5" fill="#87DCC2" fill-opacity="0.75"/>
    <rect x="880" y="224" width="180" height="92" rx="18" fill="#103447"/>
    <path d="M905 290C930 254 956 252 980 278C1004 304 1034 300 1062 246" stroke="url(#accent)" stroke-width="6" stroke-linecap="round"/>
    <circle cx="905" cy="290" r="7" fill="#79E2C0"/>
    <circle cx="980" cy="278" r="7" fill="#71B9F4"/>
    <circle cx="1062" cy="246" r="7" fill="#F4D06F"/>
    <rect x="880" y="346" width="228" height="14" rx="7" fill="#D7F2EA"/>
    <rect x="880" y="378" width="198" height="10" rx="5" fill="#D7F2EA" fill-opacity="0.75"/>
    <rect x="880" y="410" width="228" height="10" rx="5" fill="#D7F2EA" fill-opacity="0.75"/>
    <rect x="880" y="442" width="156" height="10" rx="5" fill="#D7F2EA" fill-opacity="0.75"/>
  </g>

  <text x="128" y="118" fill="#79E2C0" font-family="Avenir, Inter, Arial, sans-serif" font-size="20" font-weight="700" letter-spacing="3.2">TOPIC-AWARE RESEARCH DIGEST</text>
  <text x="126" y="210" fill="#F8FCFF" font-family="Georgia, 'Times New Roman', serif" font-size="78" font-weight="700">PubMed Signal</text>
  <text x="130" y="276" fill="#D8EAF1" font-family="Avenir, Inter, Arial, sans-serif" font-size="29" font-weight="500">Track, rank, and brief AI papers across PubMed,</text>
  <text x="130" y="316" fill="#D8EAF1" font-family="Avenir, Inter, Arial, sans-serif" font-size="29" font-weight="500">bioRxiv, and arXiv for any research topic.</text>

  <g>
    <rect x="130" y="378" width="178" height="42" rx="21" fill="#122C3B" stroke="#2A596F"/>
    <text x="160" y="405" fill="#F8FCFF" font-family="Avenir, Inter, Arial, sans-serif" font-size="18" font-weight="700">journal first</text>

    <rect x="322" y="378" width="170" height="42" rx="21" fill="#122C3B" stroke="#2A596F"/>
    <text x="354" y="405" fill="#F8FCFF" font-family="Avenir, Inter, Arial, sans-serif" font-size="18" font-weight="700">daily digest</text>

    <rect x="506" y="378" width="188" height="42" rx="21" fill="#122C3B" stroke="#2A596F"/>
    <text x="534" y="405" fill="#F8FCFF" font-family="Avenir, Inter, Arial, sans-serif" font-size="18" font-weight="700">editor picks</text>
  </g>
</svg>
